<svg xmlns="http://www.w3.org/2000/svg" xmlns:xlink="http://www.w3.org/1999/xlink" xmlns:lucid="lucid" width="1355.38" height="964.22"><g transform="translate(0 0)" lucid:page-tab-id="umHL-jd4PUor"><path d="M0 0h1355.38v964.22H0z" fill="#fff"/><path d="M970.6 760c-33.12 0-60 26.88-60 60 0 33.24 26.88 60 60 60 33.24 0 60-26.88 60-60 0-33.24-26.76-60-60-60zm15.84 112.08V862c0-4.08-2.28-7.56-5.4-9.84h.6c5.76-.6 10.68-2.4 10.68-2.4s7.32-2.28 11.4-6.96c4.2-5.16 5.4-12.36 5.4-12.36s1.2-7.92 0-14.28c-1.2-5.88-6-10.32-6-10.32s1.56-4.2 1.32-8.28c0-4.08-1.92-8.16-1.92-8.16s-3.48-.36-7.32 1.2c-4.44 1.92-9.48 5.4-9.48 5.4s-3.48-1.2-7.56-1.56c-3.72-.72-8.16-.72-8.16-.72s-4.44 0-8.28.72c-4.08.6-7.56 1.56-7.56 1.56s-5.04-3.48-9.48-5.4c-3.72-1.56-7.2-1.2-7.2-1.2s-1.92 4.08-1.92 8.16c0 4.2 1.2 8.28 1.2 8.28s-4.32 4.08-5.88 10.32c-1.68 6.36 0 14.28 0 14.28s.84 7.2 5.28 12.36c4.2 4.68 11.4 6.96 11.4 6.96s5.04 1.8 10.68 2.4h.96c-2.16 2.28-4.44 5.76-4.44 9.84v10.08c-22.32-6.6-38.52-27.48-38.52-52.08 0-30 24.36-54.24 54.36-54.24s54.72 24.24 54.72 54.24c0 24.6-16.44 45.48-38.88 52.08z" stroke="#000" stroke-opacity="0" fill="#0078d7"/><use xlink:href="#a" transform="matrix(1,0,0,1,880.6023698730814,889) translate(16.625 14.4)"/><use xlink:href="#b" transform="matrix(1,0,0,1,880.6023698730814,889) translate(77.525 14.4)"/><path d="M213.73 273.54l-16.76-4.1V211.7l16.76-3.25v65.1z" fill="#759c3e"/><path d="M199.97 263l43.5 32.14v-26.66l-29.75-7.43-13.75 1.94z" fill="#b7ca9d"/><path d="M272.42 268.52l16.48.9.45-54.4-16.93-5.37v58.87z" fill="#4b612c"/><path d="M243.48 212l-29.76 6.92-13.75-1.93 43.5-31.3V212z" fill="#3c4929"/><path d="M286.17 262.98l-43.5 30.22v-24.7l29.75-7.45 13.75 1.93z" fill="#b7ca9d"/><path d="M242.66 212.02l29.76 6.9 13.75-1.94-43.12-32.55-.4 27.6z" fill="#3c4929"/><path d="M243.06 180l-49.47 24.84v70.32L243.05 300l12.6-59.16zm-14.52 91.56L200 263.04v-46.08l28.54-8.52z" fill="#4b612c"/><path d="M243.07 300l49.5-24.84v-70.32L243.08 180zm14.56-91.56l28.6 8.52v46.08l-28.65 8.52z" fill="#759c3e"/><use xlink:href="#c" transform="matrix(1,0,0,1,193.591916259497,300) translate(29.35 14.4)"/><use xlink:href="#d" transform="matrix(1,0,0,1,193.591916259497,300) translate(-14.350000000000009 36)"/><path d="M1001.37 185.36h75.44c19.8 0 19.8 0 19.8 19.72v75.2c0 19.7 0 19.7-19.8 19.7h-75.43c-19.78 0-19.78 0-19.78-19.7v-75.2c0-19.72 0-19.72 19.77-19.72z" fill="#9d5025"/><path d="M1001.37 180h75.44c19.8 0 19.8 0 19.8 19.72v75.2c0 19.7 0 19.7-19.8 19.7h-75.43c-19.78 0-19.78 0-19.78-19.7v-75.2c0-19.72 0-19.72 19.77-19.72z" fill="#f58536"/><use xlink:href="#e" transform="matrix(1,0,0,1,981.5919162594969,300) translate(26.025 14.4)"/><use xlink:href="#f" transform="matrix(1,0,0,1,981.5919162594969,300) translate(27.549999999999997 36)"/><path d="M1093.7 502.75c-.47-.6-.83-1.22-1.2-1.83-2.03-3.88-3.1-7.45-3.83-11.73-3-14.2-10.92-25.1-23.4-32.45-8.76-5.3-17.64-8.77-28.08-7.44-13.93 1.74-25.7 6.94-33.85 18.98-4.68 7.14-7.92 13.67-10.68 21.83-2.52 7.04-2.28 14.7-5.4 21.53-.72 1.43-1.44 2.55-2.28 3.87-2.17 3.37-5.05 6.43-6.6 10-3.85 8.87-1.7 13.97 6.83 18.36.96.4 1.8.82 2.76 1.22 9.95 3.98 33.35 8.98 47.75 3.47 3.6-1.12 6.48-2.34 9.72-4.18 11.52-6.12 23.04-12.44 34.56-18.67 5.4-2.75 9.72-5.9 13.8-10.5 3.72-4.3 3.6-8.26-.12-12.45z" fill="#4b612c"/><path d="M1053.04 454.25c6.4 2.3 11.53 5.26 16.76 9.84 3.63 2.86 13.46 13 15.7 25.6.2 1.9.43 3.82.75 5.64.32.86.74 1.52 1.28 2.2l1.17 2.95s2.14 3.43 3.3 5.06c1.5 2.1 2.04 4.2.44 6.3-3.74 4.78-8.54 8.13-14.42 11.18l.54-6.2-3.85-1.15c-1.48 3.33-.52 5.8 3.1 7.63-3.4 1.8-6.5 3.44-9.5 4.97-9.28 4.97-18.46 10.03-27.75 14.9-7.16 3.73-14.1 5.26-22.1 5.07-9.3-.4-17.2-1.9-25.95-4.97-3.74-1.44-6.84-7.36-5.66-11.08.53-1.82 2.45-2.97 4.27-2.58 6.52.66 13.04 1.43 19.55 2.2 7.15.85 14.4 2.48 21.57 2.48 8.22 0 16-2.5 23.7-5.64-2.35.2-4.7.3-6.94.48-6.5.48-12.92.67-19.33 1.53-8 1.04-15.48-.68-23.06-2.6-6.2-1.33-11.1-4.67-14.64-9.93-1.4-2.1-2.24-4.4-1.17-6.6.84.77 1.8 2.2 2.44 2.1.75-.1 2.03-1.33 2.46-2.38.96-2.6 1.6-5.26 2.35-7.94 1.17-5.06 2.45-9.36 4.16-14.33 3.32-8.4 6.95-16.82 12.6-24.08 2.15-2.86 4.18-5.16 6.95-7.55 3.3-2.96 7.7-3.9 12.07-4.4 5.02-.47 10.14-.18 15.37-.28.2 0 .53.3.85.4z" fill="#759c3e"/><path d="M1085.52 489.72c-1.06-2.36-2.08-4.26-3.4-6.48-1.18-1.66-2.45-2.9-4.14-4.07-7.54-5.23-17.88-3.33-23.1 4.16-4.27 5.97-6.22 12.77-7.36 19.85-.34 2.13-.6 4.26-.98 7-2.24-3.85-3.26-7.64-3.3-12.1-.42-8.55.8-16.83 6.2-23.95 3.8-5.1 8.33-9.26 14.98-10.18 1.86-.1 3.47-.05 5.34.18 2.03 1.76 4.45 3.2 6 5.28 4.42 5.42 7.26 10.8 9.33 17.45.2.97.33 1.85.42 2.87z" fill="#b7ca9d"/><path d="M1053 454.26c-7.38 2.03-11.66 7.5-15.17 13.8-5.05 9-8.74 18.54-8.54 29.02.02 6.35 1.18 11.7 3.74 17.47.27.57.45 1.2.8 2.16-2.72.13-5.08-1.07-6.55-3.36-2.82-4.06-4.03-8.32-3.8-13.28.3-13.53 2.93-26.55 11.82-37.48 2.04-2.4 3.93-4.38 6.35-6.48 2.4-2.16 5.2-3.1 8.38-2.92z" fill="#b7ca9d"/><path d="M1088.68 500.5c0 3.35-2.3 5.13-4.52 6.9-11.27 9-24.38 13.72-38.33 16.3-6.18 1.14-12.46 2.16-18.74 2.92-7.6.9-14.7-1.75-21.9-3.62-2.96-.76-5.82-1.7-8.87-2.58 0-.32 0-.6.1-.93 1.38-.13 2.58-.13 3.97 0 5.8.98 11.54 2.47 17.36 3.06 5.63.58 10.53.58 16.16 0 10.53-1.1 19.4-3.13 29.37-6.87 5.8-2.32 10.52-4.63 15.87-7.73 4.07-2.28 7.85-5.15 8.3-10.4zM1074.73 515.7c2.8-1.65 5.5-3.46 8.4-4.94 1.32-.4 2.5-.57 3.9-.52l.26.68-8.74 5.9z" fill="#b7ca9d"/><use xlink:href="#e" transform="matrix(1,0,0,1,976.5919162594969,551) translate(28.525 14.4)"/><use xlink:href="#g" transform="matrix(1,0,0,1,976.5919162594969,551) translate(9.099999999999994 36)"/><use xlink:href="#h" transform="matrix(1,0,0,1,976.5919162594969,551) translate(74 36)"/><path d="M668.2 502.75c-.47-.6-.83-1.22-1.2-1.83-2.03-3.88-3.1-7.45-3.83-11.73-3-14.2-10.92-25.1-23.4-32.45-8.76-5.3-17.64-8.77-28.08-7.44-13.93 1.74-25.7 6.94-33.85 18.98-4.68 7.14-7.92 13.67-10.68 21.83-2.52 7.04-2.28 14.7-5.4 21.53-.72 1.43-1.44 2.55-2.28 3.87-2.17 3.37-5.05 6.43-6.6 10-3.85 8.87-1.7 13.97 6.83 18.36.96.4 1.8.82 2.76 1.22 9.95 3.98 33.35 8.98 47.75 3.47 3.6-1.12 6.48-2.34 9.72-4.18 11.52-6.12 23.04-12.44 34.56-18.67 5.4-2.75 9.72-5.9 13.8-10.5 3.72-4.3 3.6-8.26-.12-12.45z" fill="#4b612c"/><path d="M627.54 454.25c6.4 2.3 11.53 5.26 16.76 9.84 3.63 2.86 13.46 13 15.7 25.6.2 1.9.43 3.82.75 5.64.32.86.74 1.52 1.28 2.2l1.17 2.95s2.14 3.43 3.3 5.06c1.5 2.1 2.04 4.2.44 6.3-3.74 4.78-8.54 8.13-14.42 11.18l.54-6.2-3.85-1.15c-1.48 3.33-.52 5.8 3.1 7.63-3.4 1.8-6.5 3.44-9.5 4.97-9.28 4.97-18.46 10.03-27.75 14.9-7.16 3.73-14.1 5.26-22.1 5.07-9.3-.4-17.2-1.9-25.95-4.97-3.74-1.44-6.84-7.36-5.66-11.08.53-1.82 2.45-2.97 4.27-2.58 6.52.66 13.04 1.43 19.55 2.2 7.15.85 14.4 2.48 21.57 2.48 8.22 0 16-2.5 23.7-5.64-2.35.2-4.7.3-6.94.48-6.5.48-12.92.67-19.33 1.53-8 1.04-15.48-.68-23.06-2.6-6.2-1.33-11.1-4.67-14.64-9.93-1.4-2.1-2.24-4.4-1.17-6.6.84.77 1.8 2.2 2.44 2.1.75-.1 2.03-1.33 2.46-2.38.96-2.6 1.6-5.26 2.35-7.94 1.17-5.06 2.45-9.36 4.16-14.33 3.32-8.4 6.95-16.82 12.6-24.08 2.15-2.86 4.18-5.16 6.95-7.55 3.3-2.96 7.7-3.9 12.07-4.4 5.02-.47 10.14-.18 15.37-.28.2 0 .53.3.85.4z" fill="#759c3e"/><path d="M660.02 489.72c-1.06-2.36-2.08-4.26-3.4-6.48-1.18-1.66-2.45-2.9-4.14-4.07-7.54-5.23-17.88-3.33-23.1 4.16-4.27 5.97-6.22 12.77-7.36 19.85-.34 2.13-.6 4.26-.98 7-2.24-3.85-3.26-7.64-3.3-12.1-.42-8.55.8-16.83 6.2-23.95 3.8-5.1 8.33-9.26 14.98-10.18 1.86-.1 3.47-.05 5.34.18 2.03 1.76 4.45 3.2 6 5.28 4.42 5.42 7.26 10.8 9.33 17.45.2.97.33 1.85.42 2.87z" fill="#b7ca9d"/><path d="M627.5 454.26c-7.38 2.03-11.66 7.5-15.17 13.8-5.05 9-8.74 18.54-8.54 29.02.02 6.35 1.18 11.7 3.74 17.47.27.57.45 1.2.8 2.16-2.72.13-5.08-1.07-6.55-3.36-2.82-4.06-4.03-8.32-3.8-13.28.3-13.53 2.93-26.55 11.82-37.48 2.04-2.4 3.93-4.38 6.35-6.48 2.4-2.16 5.2-3.1 8.38-2.92z" fill="#b7ca9d"/><path d="M663.18 500.5c0 3.35-2.3 5.13-4.52 6.9-11.27 9-24.38 13.72-38.33 16.3-6.18 1.14-12.46 2.16-18.74 2.92-7.6.9-14.7-1.75-21.9-3.62-2.96-.76-5.82-1.7-8.87-2.58 0-.32 0-.6.1-.93 1.38-.13 2.58-.13 3.97 0 5.8.98 11.54 2.47 17.36 3.06 5.63.58 10.53.58 16.16 0 10.53-1.1 19.4-3.13 29.37-6.87 5.8-2.32 10.52-4.63 15.87-7.73 4.07-2.28 7.85-5.15 8.3-10.4zM649.23 515.7c2.8-1.65 5.5-3.46 8.4-4.94 1.32-.4 2.5-.57 3.9-.52l.26.68-8.74 5.9z" fill="#b7ca9d"/><use xlink:href="#i" transform="matrix(1,0,0,1,551.091916259497,551) translate(7.624999999999993 14.4)"/><use xlink:href="#j" transform="matrix(1,0,0,1,551.091916259497,551) translate(10.049999999999997 36)"/><use xlink:href="#h" transform="matrix(1,0,0,1,551.091916259497,551) translate(73.05 36)"/><path d="M617.3 235.6c-.3 0-.5-.05-.77-.22l-46.25-26.47c-.38-.27-.66-.7-.66-1.2s.28-.96.66-1.18l45.96-26.35c.48-.23.95-.23 1.43 0l46.24 26.52c.4.2.67.7.67 1.16 0 .55-.28 1-.66 1.22l-45.95 26.3c-.2.17-.47.22-.66.22" stroke="#000" stroke-opacity="0" fill="#3999c6"/><path d="M610.6 300c-.24 0-.5-.08-.73-.16l-46.1-26.47c-.43-.25-.68-.66-.68-1.15V219.2c0-.5.24-1 .68-1.24.44-.24.97-.24 1.4 0l46.1 26.47c.45.25.7.66.7 1.15v53.02c0 .5-.25 1-.7 1.24-.24.08-.43.16-.68.16M623.65 300c-.24 0-.5-.08-.73-.16-.44-.25-.7-.74-.7-1.23V246c0-.5.26-.98.7-1.23L669 218.3c.43-.23.97-.23 1.4 0 .45.26.7.75.7 1.24v52.63c0 .5-.25.98-.7 1.23l-46.07 26.44c-.2.08-.44.16-.68.16" stroke="#000" stroke-opacity="0" fill="#59b4d9"/><path d="M623.65 300c-.24 0-.5-.08-.73-.16-.44-.25-.7-.74-.7-1.23V246c0-.5.26-.98.7-1.23L669 218.3c.43-.23.97-.23 1.4 0 .45.26.7.75.7 1.24v52.63c0 .5-.25.98-.7 1.23l-46.07 26.44c-.2.08-.44.16-.68.16" stroke="#000" stroke-opacity="0" fill="#fff" fill-opacity=".5"/><path d="M571.75 207.26l44.93-25.73 45.46 25.5 7.37 12.23-.2 52.75-44.5 25.86-14.53.12-45.57-26.1-.42-52.74z" stroke="#000" stroke-opacity="0" stroke-width="0" fill-opacity="0"/><use xlink:href="#k" transform="matrix(1,0,0,1,533.091916259497,309) translate(49.5 14.4)"/><use xlink:href="#l" transform="matrix(1,0,0,1,533.091916259497,309) translate(12.099999999999994 36)"/><use xlink:href="#m" transform="matrix(1,0,0,1,533.091916259497,309) translate(79 36)"/><path d="M903.1 68c0-4.42 3.57-8 8-8h270c4.4 0 8 3.58 8 8v564c0 4.42-3.6 8-8 8h-270c-4.43 0-8-3.58-8-8z" stroke="#232f3e" fill="#fff" fill-opacity="0"/><path d="M903.1 60h56v56h-56V60z" stroke="#fff" stroke-opacity="0" fill="#232f3e"/><path d="M921.32 85.87c-.05.48.04.87.16 1.34.12.4.3.7.5 1.07.03.1.08.22.08.34 0 .2-.13.36-.3.46l-.94.62c-.12.08-.24.13-.37.13-.16 0-.32-.06-.45-.2-.2-.2-.37-.43-.53-.7-.17-.25-.3-.53-.45-.86-1.1 1.37-2.63 2.1-4.4 2.06-1.15.06-2.13-.3-2.95-1.08-.78-.8-1.15-1.76-1.1-2.85-.05-1.23.4-2.28 1.34-3.08 1.08-.85 2.3-1.23 3.67-1.16.57 0 1.02.02 1.6.1.57.1 1.1.2 1.72.33v-1.1c.08-.88-.17-1.67-.7-2.37-.74-.56-1.57-.8-2.47-.7-.53 0-1.03.07-1.6.2-.57.13-1.03.3-1.6.5l-.5.2h-.24c-.22 0-.34-.16-.34-.45v-.75c0-.18.04-.34.12-.5.13-.16.25-.26.4-.33.67-.3 1.2-.5 1.9-.67.78-.2 1.48-.3 2.3-.28 1.48-.13 2.8.26 3.9 1.2.95 1.05 1.36 2.28 1.24 3.67zm-6.08 2.28c.57 0 1.07-.1 1.6-.28.58-.2 1.03-.5 1.44-.96.24-.27.4-.56.5-.93.1-.45.15-.84.15-1.3V84c-.53-.1-.94-.17-1.43-.2h-1.4c-.82-.08-1.56.12-2.22.58-.53.45-.78 1.04-.74 1.73-.04.6.13 1.16.54 1.6.45.38.98.52 1.56.45zm12 1.6c-.22 0-.42-.03-.6-.15-.15-.17-.23-.36-.3-.6l-3.5-11.5c-.05-.22-.1-.4-.13-.62 0-.24.14-.37.38-.37h1.48c.2 0 .37.04.57.15.17.18.25.37.3.6l2.5 9.96 2.38-9.93c0-.24.1-.44.3-.6.16-.12.37-.16.57-.15h1.2c.24 0 .4.03.6.15.17.18.25.36.3.6l2.34 9.94 2.55-10c.04-.2.17-.4.33-.58.16-.1.37-.17.58-.14h1.4c.16 0 .32.1.36.3v.31s0 .2-.12.35l-3.62 11.53c-.04.22-.12.42-.28.6-.2.1-.37.14-.58.13h-1.27c-.25.04-.45-.02-.62-.15-.16-.16-.24-.36-.28-.6l-2.3-9.6-2.3 9.6c-.04.24-.13.44-.3.6-.2.13-.4.2-.6.16zm19.2.38c-.8 0-1.5-.07-2.3-.25-.65-.13-1.14-.3-1.72-.6-.2-.1-.37-.23-.45-.42-.08-.14-.12-.28-.12-.43v-.75c0-.3.12-.46.33-.46h.28l.37.16c.58.23 1.03.4 1.6.5.62.14 1.15.2 1.8.2.8.05 1.5-.1 2.2-.5.48-.3.77-.8.73-1.4.04-.4-.13-.76-.37-1.04-.46-.4-.96-.65-1.53-.8l-2.18-.68c-.95-.25-1.73-.73-2.4-1.5-.48-.65-.73-1.35-.73-2.18 0-.6.12-1.08.4-1.6.3-.5.63-.9 1.08-1.22.5-.38.98-.6 1.6-.78.66-.18 1.2-.26 1.9-.25.32-.03.6-.03.97 0l1 .16.8.22.67.26c.15.1.28.22.44.38.08.15.12.3.12.5v.7c0 .32-.12.47-.37.47-.2-.03-.38-.08-.58-.18-.95-.42-1.8-.6-2.88-.58-.7-.04-1.3.1-1.97.4-.5.3-.74.8-.7 1.36 0 .4.13.76.46 1.05.5.4.98.65 1.6.82l2.1.67c.94.24 1.68.7 2.3 1.44.5.64.7 1.3.7 2.1 0 .63-.13 1.17-.38 1.73-.3.55-.62.95-1.1 1.32-.5.4-1 .66-1.6.84-.75.23-1.4.33-2.14.34zM949.2 97.48c-5.6 3.82-11.37 5.58-18.16 5.56-8.54.05-15.82-2.74-22.16-8.45-.5-.42 0-1 .5-.68 7.07 4.05 14.02 5.9 22.2 5.9 6.1-.04 11.28-1.1 16.92-3.47.82-.35 1.52.55.7 1.13z" stroke="#fff" stroke-opacity="0" fill="#fff"/><path d="M951.26 95.2c-.65-.82-4.17-.38-5.75-.2-.47 0-.54-.36-.1-.66 2.8-1.98 7.4-1.4 8-.74.6.67-.15 5.28-2.8 7.5-.4.32-.77.13-.6-.3.55-1.52 1.87-4.83 1.26-5.6z" stroke="#fff" stroke-opacity="0" fill="#fff"/><use xlink:href="#n" transform="matrix(1,0,0,1,974.0919162594969,80) translate(0 14.4)"/><use xlink:href="#o" transform="matrix(1,0,0,1,974.0919162594969,80) translate(67.95 14.4)"/><use xlink:href="#p" transform="matrix(1,0,0,1,974.0919162594969,80) translate(132.85000000000002 14.4)"/><path d="M143.1 68c0-4.42 3.57-8 8-8h584c4.4 0 8 3.58 8 8v564c0 4.42-3.6 8-8 8h-584c-4.43 0-8-3.58-8-8z" stroke="#232f3e" fill="#fff" fill-opacity="0"/><path d="M143.1 60h56v56h-56V60z" stroke="#fff" stroke-opacity="0" fill="#232f3e"/><path d="M161.32 85.87c-.05.48.04.87.16 1.34.12.4.3.7.5 1.07.03.1.08.22.08.34 0 .2-.13.36-.3.46l-.94.62c-.12.08-.24.13-.37.13-.16 0-.32-.06-.45-.2-.2-.2-.37-.43-.53-.7-.17-.25-.3-.53-.45-.86-1.1 1.37-2.63 2.1-4.4 2.06-1.15.06-2.13-.3-2.95-1.08-.78-.8-1.15-1.76-1.1-2.85-.05-1.23.4-2.28 1.34-3.08 1.08-.85 2.3-1.23 3.67-1.16.57 0 1.02.02 1.6.1.57.1 1.1.2 1.72.33v-1.1c.08-.88-.17-1.67-.7-2.37-.74-.56-1.57-.8-2.47-.7-.53 0-1.03.07-1.6.2-.57.13-1.03.3-1.6.5l-.5.2h-.24c-.22 0-.34-.16-.34-.45v-.75c0-.18.04-.34.12-.5.13-.16.25-.26.4-.33.67-.3 1.2-.5 1.9-.67.78-.2 1.48-.3 2.3-.28 1.48-.13 2.8.26 3.9 1.2.95 1.05 1.36 2.28 1.24 3.67zm-6.08 2.28c.57 0 1.07-.1 1.6-.28.58-.2 1.03-.5 1.44-.96.24-.27.4-.56.5-.93.1-.45.15-.84.15-1.3V84c-.53-.1-.94-.17-1.43-.2h-1.4c-.82-.08-1.56.12-2.22.58-.53.45-.78 1.04-.74 1.73-.04.6.13 1.16.54 1.6.45.38.98.52 1.56.45zm12 1.6c-.22 0-.42-.03-.6-.15-.15-.17-.23-.36-.3-.6l-3.5-11.5c-.05-.22-.1-.4-.13-.62 0-.24.14-.37.38-.37h1.48c.2 0 .37.04.57.15.17.18.25.37.3.6l2.5 9.96 2.38-9.93c0-.24.1-.44.3-.6.16-.12.37-.16.57-.15h1.2c.24 0 .4.03.6.15.17.18.25.36.3.6l2.34 9.94 2.55-10c.04-.2.17-.4.33-.58.16-.1.37-.17.58-.14h1.4c.16 0 .32.1.36.3v.31s0 .2-.12.35l-3.62 11.53c-.04.22-.12.42-.28.6-.2.1-.37.14-.58.13h-1.27c-.25.04-.45-.02-.62-.15-.16-.16-.24-.36-.28-.6l-2.3-9.6-2.3 9.6c-.04.24-.13.44-.3.6-.2.13-.4.2-.6.16zm19.2.38c-.8 0-1.5-.07-2.3-.25-.65-.13-1.14-.3-1.72-.6-.2-.1-.37-.23-.45-.42-.08-.14-.12-.28-.12-.43v-.75c0-.3.12-.46.33-.46h.28l.37.16c.58.23 1.03.4 1.6.5.62.14 1.15.2 1.8.2.8.05 1.5-.1 2.2-.5.48-.3.77-.8.73-1.4.04-.4-.13-.76-.37-1.04-.46-.4-.96-.65-1.53-.8l-2.18-.68c-.95-.25-1.73-.73-2.4-1.5-.48-.65-.73-1.35-.73-2.18 0-.6.12-1.08.4-1.6.3-.5.63-.9 1.08-1.22.5-.38.98-.6 1.6-.78.66-.18 1.2-.26 1.9-.25.32-.03.6-.03.97 0l1 .16.8.22.67.26c.15.1.28.22.44.38.08.15.12.3.12.5v.7c0 .32-.12.47-.37.47-.2-.03-.38-.08-.58-.18-.95-.42-1.8-.6-2.88-.58-.7-.04-1.3.1-1.97.4-.5.3-.74.8-.7 1.36 0 .4.13.76.46 1.05.5.4.98.65 1.6.82l2.1.67c.94.24 1.68.7 2.3 1.44.5.64.7 1.3.7 2.1 0 .63-.13 1.17-.38 1.73-.3.55-.62.95-1.1 1.32-.5.4-1 .66-1.6.84-.75.23-1.4.33-2.14.34zM189.2 97.48c-5.6 3.82-11.37 5.58-18.16 5.56-8.54.05-15.82-2.74-22.16-8.45-.5-.42 0-1 .5-.68 7.07 4.05 14.02 5.9 22.2 5.9 6.1-.04 11.28-1.1 16.92-3.47.82-.35 1.52.55.7 1.13z" stroke="#fff" stroke-opacity="0" fill="#fff"/><path d="M191.26 95.2c-.65-.82-4.17-.38-5.75-.2-.47 0-.54-.36-.1-.66 2.8-1.98 7.4-1.4 8-.74.6.67-.15 5.28-2.8 7.5-.4.32-.77.13-.6-.3.55-1.52 1.87-4.83 1.26-5.6z" stroke="#fff" stroke-opacity="0" fill="#fff"/><use xlink:href="#q" transform="matrix(1,0,0,1,214.091916259497,80) translate(0 14.4)"/><use xlink:href="#p" transform="matrix(1,0,0,1,214.091916259497,80) translate(82.85000000000001 14.4)"/><path d="M207.55 542l-13.96-6.9v-70.36l13.95-6.9L226.67 501l-19.12 41z" fill="#4b612c"/><path d="M253.58 470.13l-46.02-12.3V542l46.02-12.72v-59.15z" fill="#759c3e"/><path d="M274.76 522.96l10.72 3.5 6.77-23.1-6.77-23.12-10.72 1.48v41.24z" fill="#4b612c"/><path d="M285.5 480.82l-10.73 1.32-6.33-1.32L279.47 458l6.02 22.82z" fill="#3c4929"/><path d="M268.44 480.8l11.02-1.46v-21.5l-11.02 2.92v20.05z" fill="#4b612c"/><path d="M233.44 473.08l10.14-10.54 26.47 14.48-9.7 1.6-26.9-5.54z" fill="#3c4929"/><path d="M285.5 519.15L274.76 518l-6.33 1.15 11.03 22.98 6.02-22.98z" fill="#b7ca9d"/><path d="M268.44 519.16l11.02 1.47v21.5l-11.02-2.9v-20.07z" fill="#4b612c"/><path d="M270.06 477.02l-26.47-6.44V440l26.46 13.33v23.7zM293.58 464.86l-14.1-7.02v21.52l14.1 3.36v-17.86z" fill="#759c3e"/><path d="M233.44 526.92l10.14 20.05 26.47-24-9.7-1.6-26.9 5.55z" fill="#b7ca9d"/><path d="M270.06 522.97l-26.47 6.44V560l26.46-13.2v-23.83zM293.58 535.28l-14.1 6.86v-21.5l14.1-3.37v18z" fill="#759c3e"/><path d="M216.97 546.68L243.6 560l12.2-59.88L243.6 440l-26.63 13.2v93.48z" fill="#4b612c"/><path d="M258.6 552.58l-15 7.4V440.44l15 7.4V552.6zM285.5 539.2l8.08-3.95v-70.4l-8.08-1.74v76.1z" fill="#759c3e"/><use xlink:href="#i" transform="matrix(1,0,0,1,193.591916259497,560) translate(-2.375000000000007 14.4)"/><use xlink:href="#r" transform="matrix(1,0,0,1,193.591916259497,560) translate(7.074999999999996 36)"/><use xlink:href="#s" transform="matrix(1,0,0,1,193.591916259497,560) translate(20.074999999999996 57.6)"/><path d="M243.1 179.5V152c0-6.62 5.36-12 12-12H604.9c6.62 0 12 5.38 12 12v11.62" stroke="#0c7cba" fill="none"/><path d="M243.6 180.26l-.53-.26v.04-.04l-.48.24v-.74h1z" fill="#0c7cba"/><path d="M616.92 178.4l-4.64-14.28h9.27z" stroke="#0c7cba" fill="#0c7cba"/><path d="M275.52 784.6c0 13.68-11.12 24.72-24.92 24.72-13.8 0-24.92-11.04-24.92-24.72 0-13.56 11.13-24.6 24.92-24.6 13.8 0 24.92 11.04 24.92 24.6m-6.67 33.12l-18.25 25.32-18.24-25.32H206.1V880h89v-62.28z" stroke="#000" stroke-opacity="0" stroke-width="3" fill="#59b4d9"/><path d="M206.1 817.7V880h89v-62.3l-27.32-17.9 4.72-21.72-21.27-16.73L228 780.22l5.96 20.64z" stroke="#000" stroke-opacity="0" stroke-width="0" fill-opacity="0"/><use xlink:href="#t" transform="matrix(1,0,0,1,176.10236987308147,889) translate(42.025 14.4)"/><path d="M771.57 240.5H671.6v-1h99.97zm193.64 0h-84.08v-1h84.1zM671.6 240.5h-.5v-1h.5zM979.97 240l-14.26 4.64v-9.28z" fill="#0c7cba"/><path d="M981.6 240l-16.4 5.32v-10.64zm-15.4 3.95l12.16-3.95-12.15-3.95z" fill="#0c7cba"/><use xlink:href="#u" transform="matrix(1,0,0,1,771.5669162594969,229.2) translate(0.005000000000002558 14.4)"/><use xlink:href="#v" transform="matrix(1,0,0,1,771.5669162594969,229.2) translate(40.55500000000001 14.4)"/><path d="M623.6 377.97l.4 3 1.13 2.77 1.83 2.4 2.4 1.82 2.75 1.14 3.02.4h118.23v1h-118.3l-3.2-.42-3-1.24-2.6-2-2-2.6-1.24-3-.4-3.2v-1.66h1zm420 .06l-.43 3.2-1.24 3-2 2.6-2.6 2-3 1.25-3.2.42H885.9v-1h145.16l3.02-.4 2.75-1.14 2.4-1.83 1.82-2.4 1.15-2.75.4-3V340.5h1zM1043.6 340.5h-1v-.5h1zM627.73 375.88h-9.27l4.63-14.26z" fill="#0c7cba"/><path d="M628.42 376.38h-10.65L623.1 360zm-9.28-1h7.9l-3.95-12.14z" fill="#0c7cba"/><use xlink:href="#w" transform="matrix(1,0,0,1,753.3502495928311,357.6) translate(20.33 14.4)"/><use xlink:href="#x" transform="matrix(1,0,0,1,753.3502495928311,357.6) translate(81.23 14.4)"/><use xlink:href="#y" transform="matrix(1,0,0,1,753.3502495928311,357.6) translate(28.480000000000004 36)"/><use xlink:href="#z" transform="matrix(1,0,0,1,753.3502495928311,357.6) translate(0.0049999999999954525 57.6)"/><use xlink:href="#A" transform="matrix(1,0,0,1,753.3502495928311,357.6) translate(80.60499999999999 57.6)"/><path d="M536.58 820.5H295.6v-1h240.98zm357.64 0h-225.1v-1h225.1z" fill="#0c7cba"/><path d="M295.62 820.5h-.52v-1h.52zM908.98 820l-14.26 4.64v-9.28z" fill="#0c7cba"/><path d="M910.6 820l-16.38 5.32v-10.64zm-15.38 3.95l12.15-3.95-12.15-3.95z" fill="#0c7cba"/><use xlink:href="#w" transform="matrix(1,0,0,1,536.5773698730815,787.6) translate(20.33 14.4)"/><use xlink:href="#x" transform="matrix(1,0,0,1,536.5773698730815,787.6) translate(81.23 14.4)"/><use xlink:href="#y" transform="matrix(1,0,0,1,536.5773698730815,787.6) translate(28.480000000000004 36)"/><use xlink:href="#z" transform="matrix(1,0,0,1,536.5773698730815,787.6) translate(0.0049999999999954525 57.6)"/><use xlink:href="#A" transform="matrix(1,0,0,1,536.5773698730815,787.6) translate(80.60499999999999 57.6)"/><path d="M1097.1 244.34h27.5c6.62 0 12 5.37 12 12V498c0 6.63-5.38 12-12 12h-11.76" stroke="#c92d39" fill="none"/><path d="M1097.1 244.84h-.5v-1h.5z" fill="#c92d39"/><path d="M1098.07 510l14.27-4.64v9.28z" stroke="#c92d39" fill="#c92d39"/><path d="M403.75 504h-93.78v-1h93.78zm159.56 0H453.66v-1H563.3z" fill="#c92d39"/><path d="M563.7 504h-.4v-1h.64zM309.47 508.13l-14.27-4.64 14.27-4.64z" fill="#c92d39"/><path d="M309.97 508.8l-16.4-5.3 16.4-5.33zm-13.15-5.3l12.15 3.94v-7.9z" fill="#c92d39"/><use xlink:href="#B" transform="matrix(1,0,0,1,403.7477555172534,492.6907768498397) translate(0.004999999999999005 14.4)"/><path d="M775.63 504h-90.46v-1h90.46zm213.18 0H882.5v-1H988.8z" fill="#c92d39"/><path d="M989.2 504h-.4v-1h.64zM684.67 508.13l-14.26-4.64 14.27-4.64z" fill="#c92d39"/><path d="M685.17 508.8l-16.38-5.3 16.37-5.33zm-13.14-5.3l12.14 3.94v-7.9z" fill="#c92d39"/><use xlink:href="#C" transform="matrix(1,0,0,1,775.6263505226254,492.6907768498398) translate(0.005000000000002558 14.4)"/><use xlink:href="#h" transform="matrix(1,0,0,1,775.6263505226254,492.6907768498398) translate(69.95500000000001 14.4)"/><path d="M1072.34 819.54h-25.4v-1h25.4zm179.26-679.62l3 1.24 2.6 2 2 2.6 1.23 3 .42 3.2v655.1l-.42 3.23-1.24 2.98-2 2.6-2.6 2-3 1.24-3.22.42h-47.24v-1h47.18l3.02-.4 2.75-1.14 2.38-1.83 1.84-2.4 1.14-2.75.4-3V152l-.4-3-1.14-2.76-1.84-2.4-2.4-1.82-2.74-1.14-3.02-.4h-197.2l-3 .4-2.77 1.14-2.4 1.83-1.82 2.4L1040 149l-.4 3v27.48h-1v-27.53l.4-3.2 1.26-3 2-2.6 2.6-2 3-1.25 3.2-.42h197.32z" fill="#c92d39"/><path d="M1039.6 180h-1v-.5h1zM1046.45 823.68l-14.27-4.64 14.27-4.63z" fill="#c92d39"/><path d="M1046.95 824.36l-16.4-5.32 16.4-5.32zm-13.15-5.32l12.15 3.95v-7.9z" fill="#c92d39"/><use xlink:href="#D" transform="matrix(1,0,0,1,1072.3444825516908,797.4406381648241) translate(41.93 14.4)"/><use xlink:href="#E" transform="matrix(1,0,0,1,1072.3444825516908,797.4406381648241) translate(0.0049999999999954525 36)"/><use xlink:href="#F" transform="matrix(1,0,0,1,1072.3444825516908,797.4406381648241) translate(36.905 36)"/><use xlink:href="#G" transform="matrix(1,0,0,1,1072.3444825516908,797.4406381648241) translate(97.805 36)"/><path d="M243.6 423.87h-1v-12.94h1zm0-34.54h-1V360.5h1zM243.6 360.5h-1v-.5h1zM243.1 438.64l-4.65-14.27h9.27z" fill="#333"/><path d="M243.1 440.25l-5.33-16.38h10.64zm-3.96-15.38l3.95 12.15 3.94-12.15z" fill="#333"/><use xlink:href="#H" transform="matrix(1,0,0,1,207.34039918969677,389.3272771737601) translate(0.005000000000002558 14.4)"/><path d="M599.12 409.5l3.22.42 3 1.24 2.6 2 2 2.6 1.23 3 .42 3.2v11.08h-1v-11l-.4-3.02-1.15-2.76-1.83-2.4-2.4-1.82-2.74-1.14-3.02-.4H512.7v-1zM337.34 245.14l2.6 2 2 2.6 1.23 3 .42 3.2v142.03l.4 3 1.13 2.77 1.83 2.4 2.4 1.82 2.75 1.14 3.02.4h86.1v1h-86.16l-3.2-.42-3-1.24-2.6-2-2-2.6-1.25-3-.4-3.2V256l-.4-3-1.15-2.76-1.83-2.4-2.4-1.83-2.74-1.13-3.02-.4h-37.98v-1h38.04l3.22.43z" fill="#0c7cba"/><path d="M293.1 244.48h-.52v-1h.5zM611.1 447.8l-4.64-14.26h9.27z" fill="#0c7cba"/><path d="M611.1 449.42l-5.33-16.38h10.65zm-3.96-15.38l3.95 12.15 3.94-12.16z" fill="#0c7cba"/><use xlink:href="#H" transform="matrix(1,0,0,1,441.2085829261642,399.2) translate(0.005000000000002558 14.4)"/><path d="M70.5 807.97l.4 3 1.14 2.77 1.83 2.4 2.4 1.82L79 819.1l3 .4H205.6v1H81.97l-3.2-.42-3-1.24-2.6-2-2-2.6-1.25-3-.42-3.2V584.45h1zM177.2 250.5H82.04l-3 .4-2.77 1.14-2.4 1.83-1.82 2.4L70.9 259l-.4 3v236.04h-1v-236.1l.42-3.2 1.24-3 2-2.6 2.6-2 3-1.24 3.2-.42h95.25zM206.1 820.5h-.5v-1h.5zM191.97 250l-14.26 4.64v-9.28z" fill="#0c7cba"/><path d="M193.6 250l-16.4 5.32v-10.64zm-15.4 3.95l12.16-3.95-12.15-3.95z" fill="#0c7cba"/><use xlink:href="#I" transform="matrix(1,0,0,1,15.024999999999991,498.0552268067923) translate(19.230000000000004 14.4)"/><use xlink:href="#J" transform="matrix(1,0,0,1,15.024999999999991,498.0552268067923) translate(4.579999999999998 36)"/><use xlink:href="#K" transform="matrix(1,0,0,1,15.024999999999991,498.0552268067923) translate(69.48 36)"/><use xlink:href="#L" transform="matrix(1,0,0,1,15.024999999999991,498.0552268067923) translate(2.0050000000000026 57.6)"/><use xlink:href="#M" transform="matrix(1,0,0,1,15.024999999999991,498.0552268067923) translate(0.005000000000002558 79.20000000000002)"/><path d="M1001.78 720.55h-17.7l-3.02.4-2.76 1.14-2.4 1.82-1.82 2.4-1.14 2.75-.4 3v27.48h-1v-27.53l.42-3.2 1.24-3 2-2.6 2.6-2 3-1.25 3.2-.42h17.78zm212.56-496.9l3 1.25 2.6 2 2 2.6 1.23 3 .42 3.2v472.38l-.43 3.2-1.24 3-2 2.6-2.6 2-3 1.25-3.2.42h-74.2v-1h74.13l3.02-.4 2.75-1.14 2.4-1.82 1.82-2.4 1.15-2.75.4-3V235.76l-.4-3.02-1.15-2.76-1.83-2.4-2.4-1.83-2.74-1.14-3.02-.4h-98.08v-1h98.14z" fill="#c92d39"/><path d="M972.54 760.07l-1-.04v-.5h1zM1112.48 228.37l-14.27-4.64 14.28-4.63z" fill="#c92d39"/><path d="M1112.98 229.06l-16.4-5.33 16.4-5.32zm-13.15-5.33l12.15 3.95v-7.9z" fill="#c92d39"/><g><use xlink:href="#N" transform="matrix(1,0,0,1,1001.7835829261646,709.2508074316868) translate(0.0049999999999954525 14.4)"/><use xlink:href="#O" transform="matrix(1,0,0,1,1001.7835829261646,709.2508074316868) translate(61.155 14.4)"/><use xlink:href="#P" transform="matrix(1,0,0,1,1001.7835829261646,709.2508074316868) translate(106.155 14.4)"/></g><path d="M919.1 218c0-4.42 3.57-8 8-8h224c4.4 0 8 3.58 8 8v44c0 4.42-3.6 8-8 8h-224c-4.43 0-8-3.58-8-8z" stroke="#000" stroke-opacity="0" fill="#fff" fill-opacity="0"/><g><use xlink:href="#Q" transform="matrix(1,0,0,1,924.0919162594969,215) translate(73.125 17.525)"/><use xlink:href="#R" transform="matrix(1,0,0,1,924.0919162594969,215) translate(69.1 39.125)"/><use xlink:href="#S" transform="matrix(1,0,0,1,924.0919162594969,215) translate(92.05 39.125)"/></g><path d="M429.54 272.02h-38.3c-.9 0-1.67-.74-1.67-1.7v-49.48c0-.95.76-1.7 1.68-1.7h51c.94 0 1.7.75 1.7 1.7v15.97h-3.37v-14.27h-47.64v46.1h36.6zM442.3 216.17h-51.12c-.93 0-1.7-.78-1.7-1.7 0-.37.12-.7.34-.98l9.15-12.8c.33-.44.76-.7 1.36-.7h32.86c.53 0 1.02.26 1.35.7l9.1 12.8c.54.75.38 1.8-.38 2.35-.33.22-.66.32-.98.32zm-47.8-3.4h44.46l-6.65-9.36h-31.15z" stroke="#fff" stroke-opacity="0" fill="#cd2264"/><path d="M427.94 260.85h-22.3c-.94 0-1.7-.77-1.7-1.7v-28.72c0-.93.76-1.7 1.7-1.7h22.3c.93 0 1.7.77 1.7 1.7v28.72c0 .93-.77 1.7-1.7 1.7zm-20.62-3.4h18.93v-25.3h-18.93z" stroke="#fff" stroke-opacity="0" fill="#cd2264"/><path d="M410.33 236.7h12.75v3.4h-12.75v-3.4zM410.33 243.08h12.75v3.4h-12.75v-3.4zM410.33 249.46h12.75v3.4h-12.75v-3.4zM464.46 280h-28.63c-.93 0-1.7-.77-1.7-1.7v-23.94c0-.47.16-.88.48-1.2.36-.33.74-.5 1.23-.5h28.66c.92 0 1.7.77 1.7 1.7v23.95c0 .93-.78 1.7-1.7 1.7h-.04zm-26.94-3.42h25.24v-20.5h-25.24z" stroke="#fff" stroke-opacity="0" fill="#cd2264"/><path d="M459.8 254.57h-3.4V248c.12-3.57-2.64-6.6-6.22-6.8-3.6.17-6.4 3.2-6.27 6.8v6.64h-3.4v-6.6c-.12-5.5 4.2-10.07 9.68-10.22 5.46.2 9.74 4.74 9.6 10.2zM450.15 268.27c-2.63 0-4.76-2.13-4.76-4.76 0-2.64 2.12-4.78 4.75-4.78 2.64-.16 4.9 1.86 5.05 4.5.16 2.63-1.85 4.9-4.48 5.05h-.57zm0-6.14c-.64.07-1.14.56-1.2 1.2-.1.77.45 1.45 1.2 1.54.38 0 .7-.13.97-.4.27-.26.4-.6.4-.98s-.12-.7-.38-.98c-.28-.27-.6-.4-1-.4zM450.15 266.57v6.6" stroke="#fff" stroke-opacity="0" fill="#cd2264"/><path d="M448.45 266.57h3.4v6.6h-3.4v-6.6z" stroke="#fff" stroke-opacity="0" fill="#cd2264"/><path d="M391.2 214.23h50.94v56.07H391.2v-56.07z" stroke="#fff" stroke-opacity="0" stroke-width=".28" fill="#fff" fill-opacity="0"/><path d="M449.65 239.62h.87c5.07 0 7.6 2.86 7.6 8.57v1.4c0 5.7-2.53 8.56-7.6 8.56h-.87c-5.08 0-7.62-2.85-7.62-8.56v-1.4c0-5.72 2.54-8.58 7.62-8.58z" stroke="#fff" stroke-opacity="0" stroke-width=".18" fill="#fff" fill-opacity="0"/><g><use xlink:href="#T" transform="matrix(1,0,0,1,359.491916259497,289) translate(2.5999999999999943 14.4)"/><use xlink:href="#U" transform="matrix(1,0,0,1,359.491916259497,289) translate(91.45 14.4)"/></g><path d="M485.55 240.5H472.3v-1h13.25zm77.04 0h-29.15v-1h29.14z" fill="#0c7cba"/><path d="M563.1 240.5h-.52v-1h.5zM471.8 244.64L457.53 240l14.27-4.64z" fill="#0c7cba"/><path d="M472.3 245.32L455.9 240l16.4-5.32zM459.15 240l12.15 3.95v-7.9z" fill="#0c7cba"/><g><use xlink:href="#V" transform="matrix(1,0,0,1,485.55338528944407,218.4) translate(2.4800000000000004 14.4)"/><use xlink:href="#W" transform="matrix(1,0,0,1,485.55338528944407,218.4) translate(0.004999999999999005 36)"/></g><defs><path d="M143 4C61 4 22-44 18-125c-5-107 100-154 193-111 17 8 29 25 37 43l-32 9c-13-25-37-40-76-40-61 0-88 39-88 99 0 61 29 100 91 101 35 0 62-11 79-27v-45h-74v-28h105v86C228-13 192 4 143 4" id="X"/><path d="M24-231v-30h32v30H24zM24 0v-190h32V0H24" id="Y"/><path d="M59-47c-2 24 18 29 38 22v24C64 9 27 4 27-40v-127H5v-23h24l9-43h21v43h35v23H59v120" id="Z"/><path d="M197 0v-115H63V0H30v-248h33v105h134v-105h34V0h-34" id="aa"/><path d="M84 4C-5 8 30-112 23-190h32v120c0 31 7 50 39 49 72-2 45-101 50-169h31l1 190h-30c-1-10 1-25-2-33-11 22-28 36-60 37" id="ab"/><path d="M115-194c53 0 69 39 70 98 0 66-23 100-70 100C84 3 66-7 56-30L54 0H23l1-261h32v101c10-23 28-34 59-34zm-8 174c40 0 45-34 45-75 0-40-5-75-45-74-42 0-51 32-51 76 0 43 10 73 51 73" id="ac"/><g id="a"><use transform="matrix(0.05,0,0,0.05,0,0)" xlink:href="#X"/><use transform="matrix(0.05,0,0,0.05,14,0)" xlink:href="#Y"/><use transform="matrix(0.05,0,0,0.05,17.95,0)" xlink:href="#Z"/><use transform="matrix(0.05,0,0,0.05,22.95,0)" xlink:href="#aa"/><use transform="matrix(0.05,0,0,0.05,35.9,0)" xlink:href="#ab"/><use transform="matrix(0.05,0,0,0.05,45.9,0)" xlink:href="#ac"/></g><path d="M233-177c-1 41-23 64-60 70L243 0h-38l-65-103H63V0H30v-248c88 3 205-21 203 71zM63-129c60-2 137 13 137-47 0-61-80-42-137-45v92" id="ad"/><path d="M100-194c63 0 86 42 84 106H49c0 40 14 67 53 68 26 1 43-12 49-29l28 8c-11 28-37 45-77 45C44 4 14-33 15-96c1-61 26-98 85-98zm52 81c6-60-76-77-97-28-3 7-6 17-6 28h103" id="ae"/><path d="M115-194c55 1 70 41 70 98S169 2 115 4C84 4 66-9 55-30l1 105H24l-1-265h31l2 30c10-21 28-34 59-34zm-8 174c40 0 45-34 45-75s-6-73-45-74c-42 0-51 32-51 76 0 43 10 73 51 73" id="af"/><path d="M100-194c62-1 85 37 85 99 1 63-27 99-86 99S16-35 15-95c0-66 28-99 85-99zM99-20c44 1 53-31 53-75 0-43-8-75-51-75s-53 32-53 75 10 74 51 75" id="ag"/><path d="M135-143c-3-34-86-38-87 0 15 53 115 12 119 90S17 21 10-45l28-5c4 36 97 45 98 0-10-56-113-15-118-90-4-57 82-63 122-42 12 7 21 19 24 35" id="ah"/><path d="M114-163C36-179 61-72 57 0H25l-1-190h30c1 12-1 29 2 39 6-27 23-49 58-41v29" id="ai"/><path d="M179-190L93 31C79 59 56 82 12 73V49c39 6 53-20 64-50L1-190h34L92-34l54-156h33" id="aj"/><g id="b"><use transform="matrix(0.05,0,0,0.05,0,0)" xlink:href="#ad"/><use transform="matrix(0.05,0,0,0.05,12.950000000000001,0)" xlink:href="#ae"/><use transform="matrix(0.05,0,0,0.05,22.950000000000003,0)" xlink:href="#af"/><use transform="matrix(0.05,0,0,0.05,32.95,0)" xlink:href="#ag"/><use transform="matrix(0.05,0,0,0.05,42.95,0)" xlink:href="#ah"/><use transform="matrix(0.05,0,0,0.05,51.95,0)" xlink:href="#Y"/><use transform="matrix(0.05,0,0,0.05,55.900000000000006,0)" xlink:href="#Z"/><use transform="matrix(0.05,0,0,0.05,60.900000000000006,0)" xlink:href="#ag"/><use transform="matrix(0.05,0,0,0.05,70.9,0)" xlink:href="#ai"/><use transform="matrix(0.05,0,0,0.05,76.85000000000001,0)" xlink:href="#aj"/></g><path fill="#333" d="M205 0l-28-72H64L36 0H1l101-248h38L239 0h-34zm-38-99l-47-123c-12 45-31 82-46 123h93" id="ak"/><path fill="#333" d="M266 0h-40l-56-210L115 0H75L2-248h35L96-30l15-64 43-154h32l59 218 59-218h35" id="al"/><path fill="#333" d="M185-189c-5-48-123-54-124 2 14 75 158 14 163 119 3 78-121 87-175 55-17-10-28-26-33-46l33-7c5 56 141 63 141-1 0-78-155-14-162-118-5-82 145-84 179-34 5 7 8 16 11 25" id="am"/><g id="c"><use transform="matrix(0.05,0,0,0.05,0,0)" xlink:href="#ak"/><use transform="matrix(0.05,0,0,0.05,11.35,0)" xlink:href="#al"/><use transform="matrix(0.05,0,0,0.05,28.299999999999997,0)" xlink:href="#am"/></g><path fill="#333" d="M212-179c-10-28-35-45-73-45-59 0-87 40-87 99 0 60 29 101 89 101 43 0 62-24 78-52l27 14C228-24 195 4 139 4 59 4 22-46 18-125c-6-104 99-153 187-111 19 9 31 26 39 46" id="an"/><path fill="#333" d="M24 0v-261h32V0H24" id="ao"/><path fill="#333" d="M100-194c62-1 85 37 85 99 1 63-27 99-86 99S16-35 15-95c0-66 28-99 85-99zM99-20c44 1 53-31 53-75 0-43-8-75-51-75s-53 32-53 75 10 74 51 75" id="ap"/><path fill="#333" d="M84 4C-5 8 30-112 23-190h32v120c0 31 7 50 39 49 72-2 45-101 50-169h31l1 190h-30c-1-10 1-25-2-33-11 22-28 36-60 37" id="aq"/><path fill="#333" d="M85-194c31 0 48 13 60 33l-1-100h32l1 261h-30c-2-10 0-23-3-31C134-8 116 4 85 4 32 4 16-35 15-94c0-66 23-100 70-100zm9 24c-40 0-46 34-46 75 0 40 6 74 45 74 42 0 51-32 51-76 0-42-9-74-50-73" id="ar"/><path fill="#333" d="M63-220v92h138v28H63V0H30v-248h175v28H63" id="as"/><path fill="#333" d="M114-163C36-179 61-72 57 0H25l-1-190h30c1 12-1 29 2 39 6-27 23-49 58-41v29" id="at"/><path fill="#333" d="M210-169c-67 3-38 105-44 169h-31v-121c0-29-5-50-35-48C34-165 62-65 56 0H25l-1-190h30c1 10-1 24 2 32 10-44 99-50 107 0 11-21 27-35 58-36 85-2 47 119 55 194h-31v-121c0-29-5-49-35-48" id="au"/><path fill="#333" d="M141-36C126-15 110 5 73 4 37 3 15-17 15-53c-1-64 63-63 125-63 3-35-9-54-41-54-24 1-41 7-42 31l-33-3c5-37 33-52 76-52 45 0 72 20 72 64v82c-1 20 7 32 28 27v20c-31 9-61-2-59-35zM48-53c0 20 12 33 32 33 41-3 63-29 60-74-43 2-92-5-92 41" id="av"/><path fill="#333" d="M59-47c-2 24 18 29 38 22v24C64 9 27 4 27-40v-127H5v-23h24l9-43h21v43h35v23H59v120" id="aw"/><path fill="#333" d="M24-231v-30h32v30H24zM24 0v-190h32V0H24" id="ax"/><path fill="#333" d="M117-194c89-4 53 116 60 194h-32v-121c0-31-8-49-39-48C34-167 62-67 57 0H25l-1-190h30c1 10-1 24 2 32 11-22 29-35 61-36" id="ay"/><g id="d"><use transform="matrix(0.05,0,0,0.05,0,0)" xlink:href="#an"/><use transform="matrix(0.05,0,0,0.05,12.950000000000001,0)" xlink:href="#ao"/><use transform="matrix(0.05,0,0,0.05,16.900000000000002,0)" xlink:href="#ap"/><use transform="matrix(0.05,0,0,0.05,26.900000000000002,0)" xlink:href="#aq"/><use transform="matrix(0.05,0,0,0.05,36.900000000000006,0)" xlink:href="#ar"/><use transform="matrix(0.05,0,0,0.05,46.900000000000006,0)" xlink:href="#as"/><use transform="matrix(0.05,0,0,0.05,57.85,0)" xlink:href="#ap"/><use transform="matrix(0.05,0,0,0.05,67.85000000000001,0)" xlink:href="#at"/><use transform="matrix(0.05,0,0,0.05,73.80000000000001,0)" xlink:href="#au"/><use transform="matrix(0.05,0,0,0.05,88.75000000000001,0)" xlink:href="#av"/><use transform="matrix(0.05,0,0,0.05,98.75000000000001,0)" xlink:href="#aw"/><use transform="matrix(0.05,0,0,0.05,103.75,0)" xlink:href="#ax"/><use transform="matrix(0.05,0,0,0.05,107.7,0)" xlink:href="#ap"/><use transform="matrix(0.05,0,0,0.05,117.7,0)" xlink:href="#ay"/></g><path fill="#333" d="M143 4C61 4 22-44 18-125c-5-107 100-154 193-111 17 8 29 25 37 43l-32 9c-13-25-37-40-76-40-61 0-88 39-88 99 0 61 29 100 91 101 35 0 62-11 79-27v-45h-74v-28h105v86C228-13 192 4 143 4" id="az"/><path fill="#333" d="M179-190L93 31C79 59 56 82 12 73V49c39 6 53-20 64-50L1-190h34L92-34l54-156h33" id="aA"/><path fill="#333" d="M96-169c-40 0-48 33-48 73s9 75 48 75c24 0 41-14 43-38l32 2c-6 37-31 61-74 61-59 0-76-41-82-99-10-93 101-131 147-64 4 7 5 14 7 22l-32 3c-4-21-16-35-41-35" id="aB"/><g id="e"><use transform="matrix(0.05,0,0,0.05,0,0)" xlink:href="#az"/><use transform="matrix(0.05,0,0,0.05,14,0)" xlink:href="#ax"/><use transform="matrix(0.05,0,0,0.05,17.95,0)" xlink:href="#aw"/><use transform="matrix(0.05,0,0,0.05,22.95,0)" xlink:href="#am"/><use transform="matrix(0.05,0,0,0.05,34.95,0)" xlink:href="#aA"/><use transform="matrix(0.05,0,0,0.05,43.95,0)" xlink:href="#ay"/><use transform="matrix(0.05,0,0,0.05,53.95,0)" xlink:href="#aB"/></g><path fill="#333" d="M100-194c63 0 86 42 84 106H49c0 40 14 67 53 68 26 1 43-12 49-29l28 8c-11 28-37 45-77 45C44 4 14-33 15-96c1-61 26-98 85-98zm52 81c6-60-76-77-97-28-3 7-6 17-6 28h103" id="aC"/><path fill="#333" d="M108 0H70L1-190h34L89-25l56-165h34" id="aD"/><g id="f"><use transform="matrix(0.05,0,0,0.05,0,0)" xlink:href="#am"/><use transform="matrix(0.05,0,0,0.05,12,0)" xlink:href="#aC"/><use transform="matrix(0.05,0,0,0.05,22,0)" xlink:href="#at"/><use transform="matrix(0.05,0,0,0.05,27.950000000000003,0)" xlink:href="#aD"/><use transform="matrix(0.05,0,0,0.05,36.95,0)" xlink:href="#ax"/><use transform="matrix(0.05,0,0,0.05,40.900000000000006,0)" xlink:href="#aB"/><use transform="matrix(0.05,0,0,0.05,49.900000000000006,0)" xlink:href="#aC"/></g><g id="g"><use transform="matrix(0.05,0,0,0.05,0,0)" xlink:href="#am"/><use transform="matrix(0.05,0,0,0.05,12,0)" xlink:href="#aC"/><use transform="matrix(0.05,0,0,0.05,22,0)" xlink:href="#at"/><use transform="matrix(0.05,0,0,0.05,27.950000000000003,0)" xlink:href="#aD"/><use transform="matrix(0.05,0,0,0.05,36.95,0)" xlink:href="#ax"/><use transform="matrix(0.05,0,0,0.05,40.900000000000006,0)" xlink:href="#aB"/><use transform="matrix(0.05,0,0,0.05,49.900000000000006,0)" xlink:href="#aC"/></g><path fill="#333" d="M233-177c-1 41-23 64-60 70L243 0h-38l-65-103H63V0H30v-248c88 3 205-21 203 71zM63-129c60-2 137 13 137-47 0-61-80-42-137-45v92" id="aE"/><g id="h"><use transform="matrix(0.05,0,0,0.05,0,0)" xlink:href="#aE"/><use transform="matrix(0.05,0,0,0.05,12.950000000000001,0)" xlink:href="#ap"/><use transform="matrix(0.05,0,0,0.05,22.950000000000003,0)" xlink:href="#ao"/><use transform="matrix(0.05,0,0,0.05,26.900000000000002,0)" xlink:href="#aC"/></g><g id="i"><use transform="matrix(0.05,0,0,0.05,0,0)" xlink:href="#an"/><use transform="matrix(0.05,0,0,0.05,12.950000000000001,0)" xlink:href="#ap"/><use transform="matrix(0.05,0,0,0.05,22.950000000000003,0)" xlink:href="#ar"/><use transform="matrix(0.05,0,0,0.05,32.95,0)" xlink:href="#aC"/><use transform="matrix(0.05,0,0,0.05,42.95,0)" xlink:href="#an"/><use transform="matrix(0.05,0,0,0.05,55.900000000000006,0)" xlink:href="#ap"/><use transform="matrix(0.05,0,0,0.05,65.9,0)" xlink:href="#au"/><use transform="matrix(0.05,0,0,0.05,80.85000000000001,0)" xlink:href="#au"/><use transform="matrix(0.05,0,0,0.05,95.80000000000001,0)" xlink:href="#ax"/><use transform="matrix(0.05,0,0,0.05,99.75000000000001,0)" xlink:href="#aw"/></g><path fill="#333" d="M135-143c-3-34-86-38-87 0 15 53 115 12 119 90S17 21 10-45l28-5c4 36 97 45 98 0-10-56-113-15-118-90-4-57 82-63 122-42 12 7 21 19 24 35" id="aF"/><g id="j"><use transform="matrix(0.05,0,0,0.05,0,0)" xlink:href="#ak"/><use transform="matrix(0.05,0,0,0.05,12,0)" xlink:href="#aB"/><use transform="matrix(0.05,0,0,0.05,21,0)" xlink:href="#aB"/><use transform="matrix(0.05,0,0,0.05,30,0)" xlink:href="#aC"/><use transform="matrix(0.05,0,0,0.05,40,0)" xlink:href="#aF"/><use transform="matrix(0.05,0,0,0.05,49,0)" xlink:href="#aF"/></g><path d="M185-189c-5-48-123-54-124 2 14 75 158 14 163 119 3 78-121 87-175 55-17-10-28-26-33-46l33-7c5 56 141 63 141-1 0-78-155-14-162-118-5-82 145-84 179-34 5 7 8 16 11 25" id="aG"/><path d="M117-194c89-4 53 116 60 194h-32v-121c0-31-8-49-39-48C34-167 62-67 57 0H25l-1-190h30c1 10-1 24 2 32 11-22 29-35 61-36" id="aH"/><path d="M96-169c-40 0-48 33-48 73s9 75 48 75c24 0 41-14 43-38l32 2c-6 37-31 61-74 61-59 0-76-41-82-99-10-93 101-131 147-64 4 7 5 14 7 22l-32 3c-4-21-16-35-41-35" id="aI"/><path d="M153-248C145-148 188 4 80 4 36 3 13-21 6-62l32-5c4 25 16 42 43 43 27 0 39-20 39-49v-147H72v-28h81" id="aJ"/><g id="k"><use transform="matrix(0.05,0,0,0.05,0,0)" xlink:href="#aG"/><use transform="matrix(0.05,0,0,0.05,12,0)" xlink:href="#aj"/><use transform="matrix(0.05,0,0,0.05,21,0)" xlink:href="#aH"/><use transform="matrix(0.05,0,0,0.05,31,0)" xlink:href="#aI"/><use transform="matrix(0.05,0,0,0.05,40,0)" xlink:href="#aJ"/><use transform="matrix(0.05,0,0,0.05,49,0)" xlink:href="#ag"/><use transform="matrix(0.05,0,0,0.05,59,0)" xlink:href="#ac"/></g><path d="M212-179c-10-28-35-45-73-45-59 0-87 40-87 99 0 60 29 101 89 101 43 0 62-24 78-52l27 14C228-24 195 4 139 4 59 4 22-46 18-125c-6-104 99-153 187-111 19 9 31 26 39 46" id="aK"/><path d="M210-169c-67 3-38 105-44 169h-31v-121c0-29-5-50-35-48C34-165 62-65 56 0H25l-1-190h30c1 10-1 24 2 32 10-44 99-50 107 0 11-21 27-35 58-36 85-2 47 119 55 194h-31v-121c0-29-5-49-35-48" id="aL"/><g id="l"><use transform="matrix(0.05,0,0,0.05,0,0)" xlink:href="#aK"/><use transform="matrix(0.05,0,0,0.05,12.950000000000001,0)" xlink:href="#ab"/><use transform="matrix(0.05,0,0,0.05,22.950000000000003,0)" xlink:href="#ah"/><use transform="matrix(0.05,0,0,0.05,31.950000000000003,0)" xlink:href="#Z"/><use transform="matrix(0.05,0,0,0.05,36.95,0)" xlink:href="#ag"/><use transform="matrix(0.05,0,0,0.05,46.95,0)" xlink:href="#aL"/></g><g id="m"><use transform="matrix(0.05,0,0,0.05,0,0)" xlink:href="#ad"/><use transform="matrix(0.05,0,0,0.05,12.950000000000001,0)" xlink:href="#ae"/><use transform="matrix(0.05,0,0,0.05,22.950000000000003,0)" xlink:href="#ah"/><use transform="matrix(0.05,0,0,0.05,31.950000000000003,0)" xlink:href="#ag"/><use transform="matrix(0.05,0,0,0.05,41.95,0)" xlink:href="#ab"/><use transform="matrix(0.05,0,0,0.05,51.95,0)" xlink:href="#ai"/><use transform="matrix(0.05,0,0,0.05,57.900000000000006,0)" xlink:href="#aI"/><use transform="matrix(0.05,0,0,0.05,66.9,0)" xlink:href="#ae"/></g><path fill="#232f3e" d="M143 4C61 4 22-44 18-125c-5-107 100-154 193-111 17 8 29 25 37 43l-32 9c-13-25-37-40-76-40-61 0-88 39-88 99 0 61 29 100 91 101 35 0 62-11 79-27v-45h-74v-28h105v86C228-13 192 4 143 4" id="aM"/><path fill="#232f3e" d="M24-231v-30h32v30H24zM24 0v-190h32V0H24" id="aN"/><path fill="#232f3e" d="M59-47c-2 24 18 29 38 22v24C64 9 27 4 27-40v-127H5v-23h24l9-43h21v43h35v23H59v120" id="aO"/><path fill="#232f3e" d="M185-189c-5-48-123-54-124 2 14 75 158 14 163 119 3 78-121 87-175 55-17-10-28-26-33-46l33-7c5 56 141 63 141-1 0-78-155-14-162-118-5-82 145-84 179-34 5 7 8 16 11 25" id="aP"/><path fill="#232f3e" d="M179-190L93 31C79 59 56 82 12 73V49c39 6 53-20 64-50L1-190h34L92-34l54-156h33" id="aQ"/><path fill="#232f3e" d="M117-194c89-4 53 116 60 194h-32v-121c0-31-8-49-39-48C34-167 62-67 57 0H25l-1-190h30c1 10-1 24 2 32 11-22 29-35 61-36" id="aR"/><path fill="#232f3e" d="M96-169c-40 0-48 33-48 73s9 75 48 75c24 0 41-14 43-38l32 2c-6 37-31 61-74 61-59 0-76-41-82-99-10-93 101-131 147-64 4 7 5 14 7 22l-32 3c-4-21-16-35-41-35" id="aS"/><g id="n"><use transform="matrix(0.05,0,0,0.05,0,0)" xlink:href="#aM"/><use transform="matrix(0.05,0,0,0.05,14,0)" xlink:href="#aN"/><use transform="matrix(0.05,0,0,0.05,17.95,0)" xlink:href="#aO"/><use transform="matrix(0.05,0,0,0.05,22.95,0)" xlink:href="#aP"/><use transform="matrix(0.05,0,0,0.05,34.95,0)" xlink:href="#aQ"/><use transform="matrix(0.05,0,0,0.05,43.95,0)" xlink:href="#aR"/><use transform="matrix(0.05,0,0,0.05,53.95,0)" xlink:href="#aS"/></g><path fill="#232f3e" d="M100-194c63 0 86 42 84 106H49c0 40 14 67 53 68 26 1 43-12 49-29l28 8c-11 28-37 45-77 45C44 4 14-33 15-96c1-61 26-98 85-98zm52 81c6-60-76-77-97-28-3 7-6 17-6 28h103" id="aT"/><path fill="#232f3e" d="M114-163C36-179 61-72 57 0H25l-1-190h30c1 12-1 29 2 39 6-27 23-49 58-41v29" id="aU"/><path fill="#232f3e" d="M108 0H70L1-190h34L89-25l56-165h34" id="aV"/><g id="o"><use transform="matrix(0.05,0,0,0.05,0,0)" xlink:href="#aP"/><use transform="matrix(0.05,0,0,0.05,12,0)" xlink:href="#aT"/><use transform="matrix(0.05,0,0,0.05,22,0)" xlink:href="#aU"/><use transform="matrix(0.05,0,0,0.05,27.950000000000003,0)" xlink:href="#aV"/><use transform="matrix(0.05,0,0,0.05,36.95,0)" xlink:href="#aN"/><use transform="matrix(0.05,0,0,0.05,40.900000000000006,0)" xlink:href="#aS"/><use transform="matrix(0.05,0,0,0.05,49.900000000000006,0)" xlink:href="#aT"/></g><path fill="#232f3e" d="M205 0l-28-72H64L36 0H1l101-248h38L239 0h-34zm-38-99l-47-123c-12 45-31 82-46 123h93" id="aW"/><path fill="#232f3e" d="M100-194c62-1 85 37 85 99 1 63-27 99-86 99S16-35 15-95c0-66 28-99 85-99zM99-20c44 1 53-31 53-75 0-43-8-75-51-75s-53 32-53 75 10 74 51 75" id="aX"/><path fill="#232f3e" d="M84 4C-5 8 30-112 23-190h32v120c0 31 7 50 39 49 72-2 45-101 50-169h31l1 190h-30c-1-10 1-25-2-33-11 22-28 36-60 37" id="aY"/><g id="p"><use transform="matrix(0.05,0,0,0.05,0,0)" xlink:href="#aW"/><use transform="matrix(0.05,0,0,0.05,12,0)" xlink:href="#aS"/><use transform="matrix(0.05,0,0,0.05,21,0)" xlink:href="#aS"/><use transform="matrix(0.05,0,0,0.05,30,0)" xlink:href="#aX"/><use transform="matrix(0.05,0,0,0.05,40,0)" xlink:href="#aY"/><use transform="matrix(0.05,0,0,0.05,50,0)" xlink:href="#aR"/><use transform="matrix(0.05,0,0,0.05,60,0)" xlink:href="#aO"/></g><path fill="#232f3e" d="M212-179c-10-28-35-45-73-45-59 0-87 40-87 99 0 60 29 101 89 101 43 0 62-24 78-52l27 14C228-24 195 4 139 4 59 4 22-46 18-125c-6-104 99-153 187-111 19 9 31 26 39 46" id="aZ"/><path fill="#232f3e" d="M135-143c-3-34-86-38-87 0 15 53 115 12 119 90S17 21 10-45l28-5c4 36 97 45 98 0-10-56-113-15-118-90-4-57 82-63 122-42 12 7 21 19 24 35" id="ba"/><path fill="#232f3e" d="M210-169c-67 3-38 105-44 169h-31v-121c0-29-5-50-35-48C34-165 62-65 56 0H25l-1-190h30c1 10-1 24 2 32 10-44 99-50 107 0 11-21 27-35 58-36 85-2 47 119 55 194h-31v-121c0-29-5-49-35-48" id="bb"/><g id="q"><use transform="matrix(0.05,0,0,0.05,0,0)" xlink:href="#aZ"/><use transform="matrix(0.05,0,0,0.05,12.950000000000001,0)" xlink:href="#aY"/><use transform="matrix(0.05,0,0,0.05,22.950000000000003,0)" xlink:href="#ba"/><use transform="matrix(0.05,0,0,0.05,31.950000000000003,0)" xlink:href="#aO"/><use transform="matrix(0.05,0,0,0.05,36.95,0)" xlink:href="#aX"/><use transform="matrix(0.05,0,0,0.05,46.95,0)" xlink:href="#bb"/><use transform="matrix(0.05,0,0,0.05,61.900000000000006,0)" xlink:href="#aT"/><use transform="matrix(0.05,0,0,0.05,71.9,0)" xlink:href="#aU"/></g><path fill="#333" d="M115-194c55 1 70 41 70 98S169 2 115 4C84 4 66-9 55-30l1 105H24l-1-265h31l2 30c10-21 28-34 59-34zm-8 174c40 0 45-34 45-75s-6-73-45-74c-42 0-51 32-51 76 0 43 10 73 51 73" id="bc"/><g id="r"><use transform="matrix(0.05,0,0,0.05,0,0)" xlink:href="#aE"/><use transform="matrix(0.05,0,0,0.05,12.950000000000001,0)" xlink:href="#aC"/><use transform="matrix(0.05,0,0,0.05,22.950000000000003,0)" xlink:href="#bc"/><use transform="matrix(0.05,0,0,0.05,32.95,0)" xlink:href="#ap"/><use transform="matrix(0.05,0,0,0.05,42.95,0)" xlink:href="#aF"/><use transform="matrix(0.05,0,0,0.05,51.95,0)" xlink:href="#ax"/><use transform="matrix(0.05,0,0,0.05,55.900000000000006,0)" xlink:href="#aw"/><use transform="matrix(0.05,0,0,0.05,60.900000000000006,0)" xlink:href="#ap"/><use transform="matrix(0.05,0,0,0.05,70.9,0)" xlink:href="#at"/><use transform="matrix(0.05,0,0,0.05,76.85000000000001,0)" xlink:href="#aA"/></g><g id="s"><use transform="matrix(0.05,0,0,0.05,0,0)" xlink:href="#aE"/><use transform="matrix(0.05,0,0,0.05,12.950000000000001,0)" xlink:href="#aC"/><use transform="matrix(0.05,0,0,0.05,22.950000000000003,0)" xlink:href="#bc"/><use transform="matrix(0.05,0,0,0.05,32.95,0)" xlink:href="#ao"/><use transform="matrix(0.05,0,0,0.05,36.900000000000006,0)" xlink:href="#ax"/><use transform="matrix(0.05,0,0,0.05,40.85000000000001,0)" xlink:href="#aB"/><use transform="matrix(0.05,0,0,0.05,49.85000000000001,0)" xlink:href="#av"/></g><path d="M30-248c118-7 216 8 213 122C240-48 200 0 122 0H30v-248zM63-27c89 8 146-16 146-99s-60-101-146-95v194" id="bd"/><path d="M108 0H70L1-190h34L89-25l56-165h34" id="be"/><path d="M140-251c81 0 123 46 123 126C263-46 219 4 140 4 59 4 17-45 17-125s42-126 123-126zm0 227c63 0 89-41 89-101s-29-99-89-99c-61 0-89 39-89 99S79-25 140-24" id="bf"/><g id="t"><use transform="matrix(0.05,0,0,0.05,0,0)" xlink:href="#bd"/><use transform="matrix(0.05,0,0,0.05,12.950000000000001,0)" xlink:href="#ae"/><use transform="matrix(0.05,0,0,0.05,22.950000000000003,0)" xlink:href="#be"/><use transform="matrix(0.05,0,0,0.05,31.950000000000003,0)" xlink:href="#bf"/><use transform="matrix(0.05,0,0,0.05,45.95,0)" xlink:href="#af"/><use transform="matrix(0.05,0,0,0.05,55.95,0)" xlink:href="#ah"/></g><path fill="#333" d="M30-248c87 1 191-15 191 75 0 78-77 80-158 76V0H30v-248zm33 125c57 0 124 11 124-50 0-59-68-47-124-48v98" id="bg"/><path fill="#333" d="M232-93c-1 65-40 97-104 97C67 4 28-28 28-90v-158h33c8 89-33 224 67 224 102 0 64-133 71-224h33v155" id="bh"/><path fill="#333" d="M127-220V0H93v-220H8v-28h204v28h-85" id="bi"/><g id="u"><use transform="matrix(0.05,0,0,0.05,0,0)" xlink:href="#bg"/><use transform="matrix(0.05,0,0,0.05,12,0)" xlink:href="#bh"/><use transform="matrix(0.05,0,0,0.05,24.950000000000003,0)" xlink:href="#bi"/></g><path fill="#333" d="M153-248C145-148 188 4 80 4 36 3 13-21 6-62l32-5c4 25 16 42 43 43 27 0 39-20 39-49v-147H72v-28h81" id="bj"/><path fill="#333" d="M115-194c53 0 69 39 70 98 0 66-23 100-70 100C84 3 66-7 56-30L54 0H23l1-261h32v101c10-23 28-34 59-34zm-8 174c40 0 45-34 45-75 0-40-5-75-45-74-42 0-51 32-51 76 0 43 10 73 51 73" id="bk"/><g id="v"><use transform="matrix(0.05,0,0,0.05,0,0)" xlink:href="#am"/><use transform="matrix(0.05,0,0,0.05,12,0)" xlink:href="#aA"/><use transform="matrix(0.05,0,0,0.05,21,0)" xlink:href="#ay"/><use transform="matrix(0.05,0,0,0.05,31,0)" xlink:href="#aB"/><use transform="matrix(0.05,0,0,0.05,40,0)" xlink:href="#bj"/><use transform="matrix(0.05,0,0,0.05,49,0)" xlink:href="#ap"/><use transform="matrix(0.05,0,0,0.05,59,0)" xlink:href="#bk"/></g><path fill="#333" d="M30-248c118-7 216 8 213 122C240-48 200 0 122 0H30v-248zM63-27c89 8 146-16 146-99s-60-101-146-95v194" id="bl"/><g id="w"><use transform="matrix(0.05,0,0,0.05,0,0)" xlink:href="#bl"/><use transform="matrix(0.05,0,0,0.05,12.950000000000001,0)" xlink:href="#aC"/><use transform="matrix(0.05,0,0,0.05,22.950000000000003,0)" xlink:href="#bc"/><use transform="matrix(0.05,0,0,0.05,32.95,0)" xlink:href="#ao"/><use transform="matrix(0.05,0,0,0.05,36.900000000000006,0)" xlink:href="#ap"/><use transform="matrix(0.05,0,0,0.05,46.900000000000006,0)" xlink:href="#aA"/></g><path fill="#333" d="M194 0L95-120 63-95V0H30v-248h33v124l119-124h40L117-140 236 0h-42" id="bm"/><g id="x"><use transform="matrix(0.05,0,0,0.05,0,0)" xlink:href="#bm"/><use transform="matrix(0.05,0,0,0.05,12,0)" xlink:href="#aC"/><use transform="matrix(0.05,0,0,0.05,22,0)" xlink:href="#aA"/></g><path fill="#333" d="M106-169C34-169 62-67 57 0H25v-261h32l-1 103c12-21 28-36 61-36 89 0 53 116 60 194h-32v-121c2-32-8-49-39-48" id="bn"/><path fill="#333" d="M143 0L79-87 56-68V0H24v-261h32v163l83-92h37l-77 82L181 0h-38" id="bo"/><g id="y"><use transform="matrix(0.05,0,0,0.05,0,0)" xlink:href="#al"/><use transform="matrix(0.05,0,0,0.05,16.599999999999998,0)" xlink:href="#aC"/><use transform="matrix(0.05,0,0,0.05,26.599999999999994,0)" xlink:href="#bk"/><use transform="matrix(0.05,0,0,0.05,36.599999999999994,0)" xlink:href="#bn"/><use transform="matrix(0.05,0,0,0.05,46.599999999999994,0)" xlink:href="#ap"/><use transform="matrix(0.05,0,0,0.05,56.599999999999994,0)" xlink:href="#ap"/><use transform="matrix(0.05,0,0,0.05,66.6,0)" xlink:href="#bo"/></g><g id="z"><use transform="matrix(0.05,0,0,0.05,0,0)" xlink:href="#al"/><use transform="matrix(0.05,0,0,0.05,16.599999999999998,0)" xlink:href="#aC"/><use transform="matrix(0.05,0,0,0.05,26.599999999999994,0)" xlink:href="#bk"/><use transform="matrix(0.05,0,0,0.05,36.599999999999994,0)" xlink:href="#bn"/><use transform="matrix(0.05,0,0,0.05,46.599999999999994,0)" xlink:href="#ap"/><use transform="matrix(0.05,0,0,0.05,56.599999999999994,0)" xlink:href="#ap"/><use transform="matrix(0.05,0,0,0.05,66.6,0)" xlink:href="#bo"/></g><g id="A"><use transform="matrix(0.05,0,0,0.05,0,0)" xlink:href="#am"/><use transform="matrix(0.05,0,0,0.05,12,0)" xlink:href="#aC"/><use transform="matrix(0.05,0,0,0.05,22,0)" xlink:href="#aB"/><use transform="matrix(0.05,0,0,0.05,31,0)" xlink:href="#at"/><use transform="matrix(0.05,0,0,0.05,36.95,0)" xlink:href="#aC"/><use transform="matrix(0.05,0,0,0.05,46.95,0)" xlink:href="#aw"/></g><path fill="#333" d="M197 0v-115H63V0H30v-248h33v105h134v-105h34V0h-34" id="bp"/><g id="B"><use transform="matrix(0.05,0,0,0.05,0,0)" xlink:href="#bg"/><use transform="matrix(0.05,0,0,0.05,12,0)" xlink:href="#bh"/><use transform="matrix(0.05,0,0,0.05,24.950000000000003,0)" xlink:href="#am"/><use transform="matrix(0.05,0,0,0.05,36.95,0)" xlink:href="#bp"/></g><g id="C"><use transform="matrix(0.05,0,0,0.05,0,0)" xlink:href="#ak"/><use transform="matrix(0.05,0,0,0.05,12,0)" xlink:href="#aF"/><use transform="matrix(0.05,0,0,0.05,21,0)" xlink:href="#aF"/><use transform="matrix(0.05,0,0,0.05,30,0)" xlink:href="#aq"/><use transform="matrix(0.05,0,0,0.05,40,0)" xlink:href="#au"/><use transform="matrix(0.05,0,0,0.05,54.95,0)" xlink:href="#aC"/></g><path fill="#333" d="M30 0v-248h33v221h125V0H30" id="bq"/><g id="D"><use transform="matrix(0.05,0,0,0.05,0,0)" xlink:href="#bg"/><use transform="matrix(0.05,0,0,0.05,12,0)" xlink:href="#bh"/><use transform="matrix(0.05,0,0,0.05,24.950000000000003,0)" xlink:href="#bq"/><use transform="matrix(0.05,0,0,0.05,34.95,0)" xlink:href="#bq"/></g><path fill="#333" d="M206 0h-36l-40-164L89 0H53L-1-190h32L70-26l43-164h34l41 164 42-164h31" id="br"/><g id="E"><use transform="matrix(0.05,0,0,0.05,0,0)" xlink:href="#br"/><use transform="matrix(0.05,0,0,0.05,12.950000000000001,0)" xlink:href="#ax"/><use transform="matrix(0.05,0,0,0.05,16.900000000000002,0)" xlink:href="#aw"/><use transform="matrix(0.05,0,0,0.05,21.900000000000002,0)" xlink:href="#bn"/></g><g id="F"><use transform="matrix(0.05,0,0,0.05,0,0)" xlink:href="#bl"/><use transform="matrix(0.05,0,0,0.05,12.950000000000001,0)" xlink:href="#aC"/><use transform="matrix(0.05,0,0,0.05,22.950000000000003,0)" xlink:href="#bc"/><use transform="matrix(0.05,0,0,0.05,32.95,0)" xlink:href="#ao"/><use transform="matrix(0.05,0,0,0.05,36.900000000000006,0)" xlink:href="#ap"/><use transform="matrix(0.05,0,0,0.05,46.900000000000006,0)" xlink:href="#aA"/></g><g id="G"><use transform="matrix(0.05,0,0,0.05,0,0)" xlink:href="#bm"/><use transform="matrix(0.05,0,0,0.05,12,0)" xlink:href="#aC"/><use transform="matrix(0.05,0,0,0.05,22,0)" xlink:href="#aA"/></g><path fill="#333" d="M30 0v-248h187v28H63v79h144v27H63v87h162V0H30" id="bs"/><g id="H"><use transform="matrix(0.05,0,0,0.05,0,0)" xlink:href="#an"/><use transform="matrix(0.05,0,0,0.05,12.950000000000001,0)" xlink:href="#aE"/><use transform="matrix(0.05,0,0,0.05,25.900000000000002,0)" xlink:href="#bs"/><use transform="matrix(0.05,0,0,0.05,37.900000000000006,0)" xlink:href="#ak"/><use transform="matrix(0.05,0,0,0.05,48.550000000000004,0)" xlink:href="#bi"/><use transform="matrix(0.05,0,0,0.05,59.5,0)" xlink:href="#bs"/></g><g id="I"><use transform="matrix(0.05,0,0,0.05,0,0)" xlink:href="#an"/><use transform="matrix(0.05,0,0,0.05,12.950000000000001,0)" xlink:href="#aE"/><use transform="matrix(0.05,0,0,0.05,25.900000000000002,0)" xlink:href="#bs"/><use transform="matrix(0.05,0,0,0.05,37.900000000000006,0)" xlink:href="#ak"/><use transform="matrix(0.05,0,0,0.05,48.550000000000004,0)" xlink:href="#bi"/><use transform="matrix(0.05,0,0,0.05,59.5,0)" xlink:href="#bs"/></g><g id="J"><use transform="matrix(0.05,0,0,0.05,0,0)" xlink:href="#am"/><use transform="matrix(0.05,0,0,0.05,12,0)" xlink:href="#aC"/><use transform="matrix(0.05,0,0,0.05,22,0)" xlink:href="#at"/><use transform="matrix(0.05,0,0,0.05,27.950000000000003,0)" xlink:href="#aD"/><use transform="matrix(0.05,0,0,0.05,36.95,0)" xlink:href="#ax"/><use transform="matrix(0.05,0,0,0.05,40.900000000000006,0)" xlink:href="#aB"/><use transform="matrix(0.05,0,0,0.05,49.900000000000006,0)" xlink:href="#aC"/></g><g id="K"><use transform="matrix(0.05,0,0,0.05,0,0)" xlink:href="#bh"/><use transform="matrix(0.05,0,0,0.05,12.950000000000001,0)" xlink:href="#aE"/><use transform="matrix(0.05,0,0,0.05,25.900000000000002,0)" xlink:href="#bq"/></g><g id="L"><use transform="matrix(0.05,0,0,0.05,0,0)" xlink:href="#ak"/><use transform="matrix(0.05,0,0,0.05,12,0)" xlink:href="#aB"/><use transform="matrix(0.05,0,0,0.05,21,0)" xlink:href="#aB"/><use transform="matrix(0.05,0,0,0.05,30,0)" xlink:href="#aC"/><use transform="matrix(0.05,0,0,0.05,40,0)" xlink:href="#aF"/><use transform="matrix(0.05,0,0,0.05,49,0)" xlink:href="#aF"/><use transform="matrix(0.05,0,0,0.05,58,0)" xlink:href="#bi"/><use transform="matrix(0.05,0,0,0.05,66.95,0)" xlink:href="#ap"/><use transform="matrix(0.05,0,0,0.05,76.95,0)" xlink:href="#bo"/><use transform="matrix(0.05,0,0,0.05,85.95,0)" xlink:href="#aC"/><use transform="matrix(0.05,0,0,0.05,95.95,0)" xlink:href="#ay"/></g><g id="M"><use transform="matrix(0.05,0,0,0.05,0,0)" xlink:href="#ak"/><use transform="matrix(0.05,0,0,0.05,12,0)" xlink:href="#aB"/><use transform="matrix(0.05,0,0,0.05,21,0)" xlink:href="#aB"/><use transform="matrix(0.05,0,0,0.05,30,0)" xlink:href="#aC"/><use transform="matrix(0.05,0,0,0.05,40,0)" xlink:href="#aF"/><use transform="matrix(0.05,0,0,0.05,49,0)" xlink:href="#aF"/><use transform="matrix(0.05,0,0,0.05,58,0)" xlink:href="#am"/><use transform="matrix(0.05,0,0,0.05,70,0)" xlink:href="#aC"/><use transform="matrix(0.05,0,0,0.05,80,0)" xlink:href="#aB"/><use transform="matrix(0.05,0,0,0.05,89,0)" xlink:href="#at"/><use transform="matrix(0.05,0,0,0.05,94.95,0)" xlink:href="#aC"/><use transform="matrix(0.05,0,0,0.05,104.95,0)" xlink:href="#aw"/></g><path fill="#333" d="M177-190C167-65 218 103 67 71c-23-6-38-20-44-43l32-5c15 47 100 32 89-28v-30C133-14 115 1 83 1 29 1 15-40 15-95c0-56 16-97 71-98 29-1 48 16 59 35 1-10 0-23 2-32h30zM94-22c36 0 50-32 50-73 0-42-14-75-50-75-39 0-46 34-46 75s6 73 46 73" id="bt"/><g id="N"><use transform="matrix(0.05,0,0,0.05,0,0)" xlink:href="#bi"/><use transform="matrix(0.05,0,0,0.05,10.3,0)" xlink:href="#at"/><use transform="matrix(0.05,0,0,0.05,16.25,0)" xlink:href="#ax"/><use transform="matrix(0.05,0,0,0.05,20.2,0)" xlink:href="#bt"/><use transform="matrix(0.05,0,0,0.05,30.200000000000003,0)" xlink:href="#bt"/><use transform="matrix(0.05,0,0,0.05,40.2,0)" xlink:href="#aC"/><use transform="matrix(0.05,0,0,0.05,50.2,0)" xlink:href="#at"/></g><g id="O"><use transform="matrix(0.05,0,0,0.05,0,0)" xlink:href="#am"/><use transform="matrix(0.05,0,0,0.05,12,0)" xlink:href="#aA"/><use transform="matrix(0.05,0,0,0.05,21,0)" xlink:href="#ay"/><use transform="matrix(0.05,0,0,0.05,31,0)" xlink:href="#aB"/></g><g id="P"><use transform="matrix(0.05,0,0,0.05,0,0)" xlink:href="#bj"/><use transform="matrix(0.05,0,0,0.05,9,0)" xlink:href="#ap"/><use transform="matrix(0.05,0,0,0.05,19,0)" xlink:href="#bk"/></g><path fill="#fff" d="M67-125c0 53 21 87 73 88 37 1 54-22 65-47l45 17C233-25 199 4 140 4 58 4 20-42 15-125 8-235 124-281 211-232c18 10 29 29 36 50l-46 12c-8-25-30-41-62-41-52 0-71 34-72 86" id="bu"/><path fill="#fff" d="M110-194c64 0 96 36 96 99 0 64-35 99-97 99-61 0-95-36-95-99 0-62 34-99 96-99zm-1 164c35 0 45-28 45-65 0-40-10-65-43-65-34 0-45 26-45 65 0 36 10 65 43 65" id="bv"/><path fill="#fff" d="M135-194c87-1 58 113 63 194h-50c-7-57 23-157-34-157-59 0-34 97-39 157H25l-1-190h47c2 12-1 28 3 38 12-26 28-41 61-42" id="bw"/><path fill="#fff" d="M115-3C79 11 28 4 28-45v-112H4v-33h27l15-45h31v45h36v33H77v99c-1 23 16 31 38 25v30" id="bx"/><path fill="#fff" d="M133-34C117-15 103 5 69 4 32 3 11-16 11-54c-1-60 55-63 116-61 1-26-3-47-28-47-18 1-26 9-28 27l-52-2c7-38 36-58 82-57s74 22 75 68l1 82c-1 14 12 18 25 15v27c-30 8-71 5-69-32zm-48 3c29 0 43-24 42-57-32 0-66-3-65 30 0 17 8 27 23 27" id="by"/><path fill="#fff" d="M25-224v-37h50v37H25zM25 0v-190h50V0H25" id="bz"/><path fill="#fff" d="M185-48c-13 30-37 53-82 52C43 2 14-33 14-96s30-98 90-98c62 0 83 45 84 108H66c0 31 8 55 39 56 18 0 30-7 34-22zm-45-69c5-46-57-63-70-21-2 6-4 13-4 21h74" id="bA"/><path fill="#fff" d="M135-150c-39-12-60 13-60 57V0H25l-1-190h47c2 13-1 29 3 40 6-28 27-53 61-41v41" id="bB"/><g id="Q"><use transform="matrix(0.05,0,0,0.05,0,0)" xlink:href="#bu"/><use transform="matrix(0.05,0,0,0.05,12.950000000000001,0)" xlink:href="#bv"/><use transform="matrix(0.05,0,0,0.05,23.900000000000002,0)" xlink:href="#bw"/><use transform="matrix(0.05,0,0,0.05,34.85,0)" xlink:href="#bx"/><use transform="matrix(0.05,0,0,0.05,40.800000000000004,0)" xlink:href="#by"/><use transform="matrix(0.05,0,0,0.05,50.800000000000004,0)" xlink:href="#bz"/><use transform="matrix(0.05,0,0,0.05,55.800000000000004,0)" xlink:href="#bw"/><use transform="matrix(0.05,0,0,0.05,66.75,0)" xlink:href="#bA"/><use transform="matrix(0.05,0,0,0.05,76.75,0)" xlink:href="#bB"/></g><g id="R"><use transform="matrix(0.05,0,0,0.05,0,0)" xlink:href="#bv"/><use transform="matrix(0.05,0,0,0.05,10.950000000000001,0)" xlink:href="#bB"/></g><path fill="#fff" d="M24 0v-248h52v208h133V0H24" id="bC"/><path fill="#fff" d="M220-157c-53 9-28 100-34 157h-49v-107c1-27-5-49-29-50C55-147 81-57 75 0H25l-1-190h47c2 12-1 28 3 38 10-53 101-56 108 0 13-22 24-43 59-42 82 1 51 116 57 194h-49v-107c-1-25-5-48-29-50" id="bD"/><path fill="#fff" d="M135-194c52 0 70 43 70 98 0 56-19 99-73 100-30 1-46-15-58-35L72 0H24l1-261h50v104c11-23 29-37 60-37zM114-30c31 0 40-27 40-66 0-37-7-63-39-63s-41 28-41 65c0 36 8 64 40 64" id="bE"/><path fill="#fff" d="M88-194c31-1 46 15 58 34l-1-101h50l1 261h-48c-2-10 0-23-3-31C134-8 116 4 84 4 32 4 16-41 15-95c0-56 19-97 73-99zm17 164c33 0 40-30 41-66 1-37-9-64-41-64s-38 30-39 65c0 43 13 65 39 65" id="bF"/><g id="S"><use transform="matrix(0.05,0,0,0.05,0,0)" xlink:href="#bC"/><use transform="matrix(0.05,0,0,0.05,10.950000000000001,0)" xlink:href="#by"/><use transform="matrix(0.05,0,0,0.05,20.950000000000003,0)" xlink:href="#bD"/><use transform="matrix(0.05,0,0,0.05,36.95,0)" xlink:href="#bE"/><use transform="matrix(0.05,0,0,0.05,47.900000000000006,0)" xlink:href="#bF"/><use transform="matrix(0.05,0,0,0.05,58.85,0)" xlink:href="#by"/></g><g id="T"><use transform="matrix(0.05,0,0,0.05,0,0)" xlink:href="#bg"/><use transform="matrix(0.05,0,0,0.05,12,0)" xlink:href="#av"/><use transform="matrix(0.05,0,0,0.05,22,0)" xlink:href="#at"/><use transform="matrix(0.05,0,0,0.05,27.950000000000003,0)" xlink:href="#av"/><use transform="matrix(0.05,0,0,0.05,37.95,0)" xlink:href="#au"/><use transform="matrix(0.05,0,0,0.05,52.900000000000006,0)" xlink:href="#aC"/><use transform="matrix(0.05,0,0,0.05,62.900000000000006,0)" xlink:href="#aw"/><use transform="matrix(0.05,0,0,0.05,67.9,0)" xlink:href="#aC"/><use transform="matrix(0.05,0,0,0.05,77.9,0)" xlink:href="#at"/></g><g id="U"><use transform="matrix(0.05,0,0,0.05,0,0)" xlink:href="#am"/><use transform="matrix(0.05,0,0,0.05,12,0)" xlink:href="#aw"/><use transform="matrix(0.05,0,0,0.05,17,0)" xlink:href="#ap"/><use transform="matrix(0.05,0,0,0.05,27,0)" xlink:href="#at"/><use transform="matrix(0.05,0,0,0.05,32.95,0)" xlink:href="#aC"/></g><g id="V"><use transform="matrix(0.05,0,0,0.05,0,0)" xlink:href="#am"/><use transform="matrix(0.05,0,0,0.05,12,0)" xlink:href="#aw"/><use transform="matrix(0.05,0,0,0.05,17,0)" xlink:href="#ap"/><use transform="matrix(0.05,0,0,0.05,27,0)" xlink:href="#at"/><use transform="matrix(0.05,0,0,0.05,32.95,0)" xlink:href="#aC"/></g><g id="W"><use transform="matrix(0.05,0,0,0.05,0,0)" xlink:href="#an"/><use transform="matrix(0.05,0,0,0.05,12.950000000000001,0)" xlink:href="#at"/><use transform="matrix(0.05,0,0,0.05,18.900000000000002,0)" xlink:href="#aC"/><use transform="matrix(0.05,0,0,0.05,28.900000000000002,0)" xlink:href="#ar"/><use transform="matrix(0.05,0,0,0.05,38.900000000000006,0)" xlink:href="#aF"/></g></defs></g></svg>